# xmcd
#
# Track frame offsets:
#	150
#	23173
#	42189
#	59595
#	78854
#	96781
#	109119
#	132661
#	150827
#	170907
#	183936
#	201091
#	222721
#	238387
#	261839
#
# Disc length: 3650 seconds
#
# Revision: 4
# Processed by: cddbd v1.5.1PL0 Copyright (c) Steve Scherf et al.
# Submitted via: MusicWizard 6.0.1
#
DISCID=d80e400f
DTITLE=Joe Cocker - The Ultimate Collection CD1
DYEAR=2003
DGENRE=Blues
TTITLE0=Unchain My Heart
TTITLE1=Feelin' Alright
TTITLE2=Summer In The City
TTITLE3=You Can Leave Your Hat On
TTITLE4=Up Where We Belong (Feat Jennifer Warnes)
TTITLE5=You Are So Beautiful
TTITLE6=With A Little Help From My Friends
TTITLE7=Cry Me A River (Live)
TTITLE8=The Letter (Live)
TTITLE9=Delta Lady
TTITLE10=Many Rivers To Cross
TTITLE11=When The Night Comes
TTITLE12=Night Calls
TTITLE13=Don't You Love Me Anymore
TTITLE14=She Came In Through The Bathroom Window
EXTD=YEAR: 2003 ID3G: 0
EXTT0=
EXTT1=
EXTT2=
EXTT3=
EXTT4=
EXTT5=
EXTT6=
EXTT7=
EXTT8=
EXTT9=
EXTT10=
EXTT11=
EXTT12=
EXTT13=
EXTT14=
PLAYORDER=
